<?xml version="1.0" encoding="utf-8"?><svg viewBox="0 0 70 70" xmlns="http://www.w3.org/2000/svg" xmlns:xlink="http://www.w3.org/1999/xlink"><style>:root>svg{display:none}:root>svg:target{display:block}</style><svg fill="none" viewBox="0 0 16 16" id="account" xmlns="http://www.w3.org/2000/svg"><path d="M8 0a4 4 0 110 8 4 4 0 010-8zm0 10c4.42 0 8 1.79 8 4v2H0v-2c0-2.21 3.58-4 8-4z" fill="#fff"/></svg><svg fill="none" viewBox="0 0 70 70" id="delivery" xmlns="http://www.w3.org/2000/svg"><path d="M61.25 39.346c-.604 0-1.094.49-1.094 1.094v7.664h-1.74a6.913 6.913 0 00-13.737 0H21.875V16.385h38.281v3.44a1.094 1.094 0 002.188 0v-4.533c0-.604-.49-1.094-1.094-1.094H20.781c-.604 0-1.093.49-1.093 1.094v1.093H7.162a4.98 4.98 0 00-4.974 4.975v1.588c0 .604.49 1.094 1.093 1.094h1.272L3.72 34.066A4.971 4.971 0 000 38.86v9.244c0 .604.49 1.094 1.094 1.094h2.215a7.103 7.103 0 0014.164 0c.01 0 .017.005.027.005h2.188c0 .604.49 1.094 1.093 1.094h23.997a6.915 6.915 0 0013.539 0h2.933c.604 0 1.094-.49 1.094-1.094V40.44c0-.604-.49-1.094-1.094-1.094zM10.39 53.573a4.922 4.922 0 110-9.844 4.922 4.922 0 010 9.844zm9.297-6.563H17.5c-.064.007-.128.02-.19.039a7.1 7.1 0 00-13.83-.039H2.188v-8.15a2.79 2.79 0 012.786-2.787h14.713V47.01zm0-13.125H5.928l.82-9.843h12.94v9.843zm0-12.03H4.376v-.495a2.79 2.79 0 012.787-2.787h12.526v3.281zm36.58 27.3a4.718 4.718 0 01-4.719 4.453 4.726 4.726 0 01-4.647-3.92.984.984 0 00-.056-1.063 4.719 4.719 0 019.422.53z" fill="#333"/><path d="M60.156 22.948H44.844a1.094 1.094 0 000 2.187h15.312a1.094 1.094 0 100-2.187zM62.344 34.98H38.28a1.094 1.094 0 000 2.187h24.063a1.094 1.094 0 000-2.188zM60.156 28.417H48.125a1.094 1.094 0 000 2.187h12.031a1.094 1.094 0 100-2.187zM64.531 25.135h2.188a1.094 1.094 0 000-2.187H64.53a1.094 1.094 0 000 2.187zM67.813 34.98h-2.188a1.094 1.094 0 000 2.187h2.188a1.094 1.094 0 000-2.188zM68.906 28.417h-4.375a1.094 1.094 0 000 2.187h4.375a1.094 1.094 0 100-2.187z" fill="#333"/></svg><svg fill="none" viewBox="0 0 16 16" id="etsy" xmlns="http://www.w3.org/2000/svg"><path d="M5.71 1.63c0-.217.021-.347.393-.347h4.976c.867 0 1.347.74 1.694 2.129l.28 1.11h.846c.154-3.151.287-4.522.287-4.522s-2.13.24-3.393.24H4.427L1.017.13v.914l1.15.217c.807.16 1 .331 1.067 1.071 0 0 .073 2.18.073 5.76 0 3.59-.06 5.74-.06 5.74 0 .649-.26.889-1.06 1.049l-1.148.22V16l3.42-.11h5.7c1.29 0 4.26.11 4.26.11.07-.78.5-4.32.57-4.71h-.8l-.856 1.94c-.67 1.52-1.65 1.63-2.74 1.63h-3.27c-1.087 0-1.61-.426-1.61-1.366v-4.96s2.413 0 3.193.063c.608.043.975.217 1.173 1.066l.26 1.13h.94l-.06-2.852.128-2.87h-.927l-.3 1.26c-.189.829-.32.98-1.17 1.066-1.11.114-3.21.094-3.21.094V1.633h-.033l.002-.003z" fill="#333"/></svg><svg fill="none" viewBox="0 0 26 26" id="facebook" xmlns="http://www.w3.org/2000/svg"><path d="M14.513 22.747v-8.88h2.996l.445-3.476h-3.44V8.177c0-1.003.279-1.69 1.719-1.69h1.824v-3.1a24.198 24.198 0 00-2.673-.137c-2.647 0-4.465 1.616-4.465 4.584v2.55H7.943v3.477h2.982v8.886h3.588z" fill="#333"/></svg><svg fill="none" viewBox="0 0 70 70" id="jewelry" xmlns="http://www.w3.org/2000/svg"><g clip-path="url(#eclip0)" fill="#333"><path d="M25.364 43.713a3.77 3.77 0 00-3.254-1.877h-4.952v-2.97c2.335-.456 4.17-2.437 4.36-4.88a1.026 1.026 0 00-2.046-.159 3.363 3.363 0 01-3.339 3.087 3.353 3.353 0 01-3.35-3.35 3.353 3.353 0 015.024-2.902 1.025 1.025 0 101.027-1.775c-.52-.3-1.087-.51-1.676-.624v-2.99a3.424 3.424 0 002.393-3.261c0-1.53-1.01-2.828-2.399-3.263l.02-2.131a.725.725 0 01.589-.702c3.69-.77 6.37-4.082 6.37-7.876 0-4.355-3.649-8.037-7.968-8.04h-.004c-3.114 0-6.013 1.975-7.387 5.032a1.025 1.025 0 001.87.84c1.044-2.321 3.21-3.821 5.517-3.821h.003c2.858.002 5.918 2.409 5.918 5.99 0 2.827-1.992 5.295-4.738 5.868a2.763 2.763 0 00-2.22 2.69l-.02 2.154a3.423 3.423 0 00-2.387 3.259 3.424 3.424 0 002.393 3.26v2.99a5.409 5.409 0 00-4.375 5.303 5.409 5.409 0 004.375 5.301v2.97h-4.952c-1.337 0-2.584.72-3.254 1.877L.93 54.035a3.77 3.77 0 000 3.766l5.972 10.322A3.771 3.771 0 0010.156 70H22.11c1.337 0 2.584-.72 3.254-1.877l5.972-10.322a3.77 3.77 0 000-3.766l-5.972-10.322zm-9.231-23.069a1.369 1.369 0 010 2.734 1.369 1.369 0 01-1.367-1.366c0-.754.613-1.367 1.367-1.367zm13.428 36.13l-5.972 10.322a1.714 1.714 0 01-1.48.853H10.157a1.714 1.714 0 01-1.479-.853L2.705 56.774a1.714 1.714 0 010-1.712L8.677 44.74a1.714 1.714 0 011.48-.853H22.11c.608 0 1.175.327 1.479.853l5.972 10.322a1.714 1.714 0 010 1.712z"/><path d="M21.244 49.447a2.4 2.4 0 00-2.072-1.197h-6.078a2.4 2.4 0 00-2.072 1.197L7.983 54.71a2.4 2.4 0 000 2.393l.48.832a1.026 1.026 0 001.776-1.026l-.48-.832a.343.343 0 010-.341l3.039-5.264a.343.343 0 01.296-.171h6.078c.121 0 .235.066.296.17l3.038 5.265c.061.105.061.236 0 .341l-3.038 5.264a.343.343 0 01-.296.171h-6.078c-.257.022-.377-.33-.487-.501a1.026 1.026 0 00-1.776 1.025l.19.33a2.4 2.4 0 002.073 1.197h6.078a2.4 2.4 0 002.071-1.197l3.04-5.263a2.4 2.4 0 000-2.393l-3.04-5.264zM69.07 54.035l-1.739-3.005a1.025 1.025 0 10-1.775 1.027l1.74 3.005a1.714 1.714 0 010 1.712l-5.973 10.322a1.714 1.714 0 01-1.479.853H47.891a1.714 1.714 0 01-1.48-.853L40.44 56.774a1.714 1.714 0 010-1.712L46.41 44.74a1.714 1.714 0 011.48-.853h11.953c.608 0 1.175.327 1.48.853l1.86 3.215a1.025 1.025 0 101.774-1.027l-1.86-3.215a3.77 3.77 0 00-3.254-1.877h-4.951v-2.97a5.409 5.409 0 004.375-5.301 5.409 5.409 0 00-4.375-5.302v-2.99a3.424 3.424 0 002.392-3.261c0-1.53-1.01-2.828-2.398-3.263l.02-2.131a.725.725 0 01.588-.702c3.691-.77 6.37-4.082 6.37-7.876 0-.304-.017-.61-.051-.91a1.025 1.025 0 10-2.038.233c.026.223.038.45.038.677 0 2.828-1.992 5.296-4.738 5.869a2.763 2.763 0 00-2.22 2.689l-.02 2.155a3.424 3.424 0 00-2.387 3.259 3.424 3.424 0 002.393 3.26v2.99a5.409 5.409 0 00-4.375 5.303 5.409 5.409 0 004.375 5.301v2.97h-4.951c-1.338 0-2.585.72-3.255 1.877l-5.972 10.322a3.77 3.77 0 000 3.766l5.972 10.322A3.771 3.771 0 0047.891 70h11.953c1.337 0 2.584-.72 3.255-1.877l5.971-10.322a3.77 3.77 0 000-3.766zm-15.203-33.39c.754 0 1.368.613 1.368 1.367s-.614 1.367-1.368 1.367a1.369 1.369 0 01-1.367-1.367c0-.754.614-1.367 1.367-1.367zm-3.35 12.92a3.353 3.353 0 013.35-3.35 3.353 3.353 0 013.35 3.35 3.353 3.353 0 01-3.35 3.35 3.353 3.353 0 01-3.35-3.35zM47.021 6.388c.505.23 1.123.007 1.356-.515C49.42 3.55 51.586 2.05 53.893 2.05h.003c1.465 0 2.948.619 4.07 1.696a1.025 1.025 0 001.42-1.478C57.887.829 55.886 0 53.898 0h-.005c-3.113 0-6.013 1.975-7.386 5.032a1.025 1.025 0 00.514 1.356z"/><path d="M56.906 48.25h-6.078a2.4 2.4 0 00-2.072 1.197l-3.038 5.263a2.399 2.399 0 000 2.393l3.038 5.264a2.4 2.4 0 002.072 1.196h6.078a2.4 2.4 0 002.072-1.197l3.039-5.263a2.4 2.4 0 000-2.393l-3.04-5.264a2.4 2.4 0 00-2.071-1.196zm3.334 7.827l-3.038 5.264a.343.343 0 01-.296.171h-6.078a.343.343 0 01-.296-.17l-3.039-5.265a.343.343 0 010-.341l3.04-5.264a.343.343 0 01.295-.171h6.078c.122 0 .235.066.296.17l3.038 5.265c.061.105.061.236 0 .341z"/></g><defs><clipPath id="eclip0"><path fill="#fff" d="M0 0h70v70H0z"/></clipPath></defs></svg><svg fill="none" viewBox="0 0 17 15" id="like" xmlns="http://www.w3.org/2000/svg"><path d="M8.973 2.596C6.22-1.659.643.66.643 5.295c0 3.48 7.644 8.925 8.33 9.634.692-.709 7.956-6.153 7.956-9.634 0-4.6-5.196-6.954-7.956-2.699z" fill="#fff"/></svg><svg fill="none" viewBox="0 0 70 70" id="list" xmlns="http://www.w3.org/2000/svg"><path d="M50.313 2.188h-8.75V1.093a1.094 1.094 0 00-2.188 0v1.093h-8.75V1.095a1.094 1.094 0 00-2.188 0v1.093h-8.75V1.095a1.094 1.094 0 00-2.187 0v1.093H8.75c-.604 0-1.094.49-1.094 1.094v65.625c0 .604.49 1.094 1.094 1.094h41.563c.603 0 1.093-.49 1.093-1.094V3.281c0-.604-.49-1.094-1.093-1.094zm-1.094 65.624H9.844V4.376H17.5v3.281a1.094 1.094 0 002.188 0V4.375h8.75v3.281a1.094 1.094 0 002.187 0V4.375h8.75v3.281a1.094 1.094 0 002.188 0V4.375h7.656v63.438z" fill="#333"/><path d="M25.156 12.031H14.22c-.604 0-1.094.49-1.094 1.094v10.938c0 .604.49 1.093 1.094 1.093h10.937c.604 0 1.094-.49 1.094-1.093V13.124c0-.604-.49-1.094-1.094-1.094zM24.063 22.97h-8.75v-8.75h8.75v8.75zM25.156 27.344H14.22c-.604 0-1.094.49-1.094 1.093v10.938c0 .604.49 1.094 1.094 1.094h10.937c.604 0 1.094-.49 1.094-1.094V28.437c0-.604-.49-1.093-1.094-1.093zM24.063 38.28h-8.75v-8.75h8.75v8.75zM25.156 42.656H14.22c-.604 0-1.094.49-1.094 1.094v10.938c0 .603.49 1.093 1.094 1.093h10.937c.604 0 1.094-.49 1.094-1.093V43.75c0-.604-.49-1.094-1.094-1.094zm-1.093 10.938h-8.75v-8.75h8.75v8.75zM29.531 14.219c0 .604.49 1.094 1.094 1.094H43.75a1.094 1.094 0 000-2.188H30.625c-.604 0-1.094.49-1.094 1.094zM43.75 21.875H30.625a1.094 1.094 0 000 2.188H43.75a1.094 1.094 0 000-2.188zM30.625 19.688h5.469a1.094 1.094 0 000-2.188h-5.469a1.094 1.094 0 000 2.188zM41.563 19.688a1.094 1.094 0 000-2.188h-2.188a1.094 1.094 0 000 2.188h2.188zM43.75 28.438H30.625a1.094 1.094 0 000 2.187H43.75a1.094 1.094 0 000-2.188zM43.75 37.188H30.625a1.094 1.094 0 000 2.187H43.75a1.094 1.094 0 000-2.188zM30.625 35h5.469a1.094 1.094 0 000-2.188h-5.469a1.094 1.094 0 000 2.188zM41.563 35a1.094 1.094 0 000-2.188h-2.188a1.094 1.094 0 000 2.188h2.188zM43.75 43.75H30.625a1.094 1.094 0 000 2.188H43.75a1.094 1.094 0 000-2.188zM43.75 52.5H30.625a1.094 1.094 0 000 2.188H43.75a1.094 1.094 0 000-2.188zM30.625 50.313h5.469a1.094 1.094 0 000-2.188h-5.469a1.094 1.094 0 000 2.188zM41.563 50.313a1.094 1.094 0 000-2.188h-2.188a1.094 1.094 0 000 2.188h2.188zM58.516 14.219a3.828 3.828 0 00-3.828 3.828v32.266a.935.935 0 00.02.095.696.696 0 000 .084l1.093 6.562c.087.526.541.912 1.074.915h3.281c.535 0 .991-.387 1.079-.915l1.093-6.562a.696.696 0 000-.084.958.958 0 00.016-.096V18.047a3.828 3.828 0 00-3.828-3.828zm.714 41.562H57.8l-.728-4.375h2.885l-.728 4.375zm.926-6.562h-3.281v-26.25h3.281v26.25zm0-28.438h-3.281v-2.734a1.64 1.64 0 013.281 0v2.734z" fill="#333"/></svg><svg fill="none" viewBox="0 0 20 20" id="mail" xmlns="http://www.w3.org/2000/svg"><path d="M1.574 5.286l7.5 4.029c.252.135.578.199.906.199.328 0 .654-.064.906-.199l7.5-4.029c.489-.263.951-1.286.054-1.286H1.521c-.897 0-.435 1.023.053 1.286zm17.039 2.203l-7.727 4.027c-.34.178-.578.199-.906.199-.328 0-.566-.021-.906-.199-.34-.178-7.133-3.739-7.688-4.028-.39-.204-.386.035-.386.219V15c0 .42.566 1 1 1h16c.434 0 1-.58 1-1V7.708c0-.184.004-.423-.387-.219z" fill="#333"/></svg><svg fill="none" viewBox="0 0 20 20" id="old-phone" xmlns="http://www.w3.org/2000/svg"><path d="M17.256 12.253c-.096-.667-.611-1.187-1.274-1.342-2.577-.604-3.223-2.088-3.332-3.734C12.193 7.092 11.38 7 10 7s-2.193.092-2.65.177c-.109 1.646-.755 3.13-3.332 3.734-.663.156-1.178.675-1.274 1.342l-.497 3.442C2.072 16.907 2.962 18 4.2 18h11.6c1.237 0 2.128-1.093 1.953-2.305l-.497-3.442zM10 15.492c-1.395 0-2.526-1.12-2.526-2.5s1.131-2.5 2.526-2.5c1.395 0 2.526 1.12 2.526 2.5s-1.132 2.5-2.526 2.5zM19.95 6c-.024-1.5-3.842-3.999-9.95-4C3.891 2.001.073 4.5.05 6 .027 7.5.071 9.452 2.585 9.127c2.941-.381 2.76-1.408 2.76-2.876C5.345 5.227 7.737 4.98 10 4.98c2.263 0 4.654.247 4.655 1.271 0 1.468-.181 2.495 2.76 2.876C19.928 9.452 19.973 7.5 19.95 6z" fill="#333"/></svg><svg fill="none" viewBox="0 0 70 70" id="ribbon-design" xmlns="http://www.w3.org/2000/svg"><path d="M45.744 40.94L35.9 26.722a1.093 1.093 0 00-1.8 0L24.258 40.94a1.094 1.094 0 00-.138.968l2.801 8.404h-.67a1.093 1.093 0 00-1.094 1.094v3.282a1.094 1.094 0 001.094 1.093h1.094v12.032a1.094 1.094 0 001.094 1.093h13.125a1.094 1.094 0 001.093-1.094v-12.03h1.094a1.094 1.094 0 001.094-1.094v-3.282a1.094 1.094 0 00-1.094-1.093h-.67l2.802-8.405a1.091 1.091 0 00-.138-.968zM35 39.375a1.094 1.094 0 110 2.188 1.094 1.094 0 010-2.188zm5.469 27.344H29.53V55.78H40.47V66.72zm2.187-13.125H27.344V52.5h15.312v1.094zm-1.882-3.282H29.227l-2.86-8.576 7.54-10.89v6.341c0 .062.006.123.016.184a3.281 3.281 0 102.154 0c.01-.06.016-.122.017-.184v-6.342l7.54 10.891-2.86 8.577z" fill="#333"/><path d="M67.813 13.125h-4.376a1.093 1.093 0 00-1.093 1.094v1.103a1.118 1.118 0 00-.137-.01H38.281V14.22a1.094 1.094 0 00-1.093-1.094h-1.094V7.656h1.093a1.094 1.094 0 001.094-1.093V2.188a1.094 1.094 0 00-1.093-1.094h-4.376a1.094 1.094 0 00-1.093 1.093v4.376a1.094 1.094 0 001.093 1.093h1.094v5.469h-1.093a1.093 1.093 0 00-1.094 1.094v1.094H7.656v-1.094a1.094 1.094 0 00-1.093-1.094H2.188a1.093 1.093 0 00-1.094 1.094v4.375a1.094 1.094 0 001.093 1.093h4.376a1.093 1.093 0 001.093-1.093V17.5H25.74a17.106 17.106 0 00-3.827 3.466c-2.804 3.4-4.412 7.718-4.412 11.846h-1.094a1.093 1.093 0 00-1.093 1.094v4.375a1.093 1.093 0 001.093 1.094h4.375a1.093 1.093 0 001.094-1.094v-4.375a1.093 1.093 0 00-1.094-1.093h-1.093c0-8.11 6.24-14.508 12.03-15.242v1.023a1.094 1.094 0 001.095 1.093h4.374a1.093 1.093 0 001.094-1.093v-1.027c2.962.351 5.804 2.126 8.098 5.086 2.233 2.878 3.65 6.605 3.895 10.16H49.22a1.093 1.093 0 00-1.094 1.093v4.375a1.093 1.093 0 001.094 1.094h4.375a1.093 1.093 0 001.093-1.094v-4.375a1.093 1.093 0 00-1.093-1.093h-1.128c-.24-4.062-1.797-8.2-4.357-11.501a17.283 17.283 0 00-4.02-3.812h18.118c.046 0 .091-.004.137-.01v1.104a1.094 1.094 0 001.093 1.093h4.376a1.093 1.093 0 001.093-1.093v-4.375a1.094 1.094 0 00-1.094-1.094zM5.468 17.5H3.28v-2.188H5.47V17.5zm14.218 19.688H17.5V35h2.188v2.188zM33.907 3.28h2.187V5.47h-2.188V3.28zM36.093 17.5h-2.188v-2.188h2.188V17.5zM50.312 35H52.5v2.188h-2.188V35zM66.72 17.5H64.53v-2.188h2.188V17.5z" fill="#333"/></svg><svg fill="none" viewBox="0 0 19 19" id="search" xmlns="http://www.w3.org/2000/svg"><path d="M19 17l-5.154-5.154a7 7 0 10-2 2L17 19l2-2zM3 8c0-2.757 2.243-5 5-5s5 2.243 5 5-2.243 5-5 5-5-2.243-5-5z" fill="#fff"/></svg><svg fill="none" viewBox="0 0 12 8" id="strelka" xmlns="http://www.w3.org/2000/svg"><path d="M6 8L.804.5h10.392L6 8z" fill="#333"/></svg><svg fill="none" viewBox="0 0 17 17" id="subscribe" xmlns="http://www.w3.org/2000/svg"><path d="M11 8.5l-3.75 2.165v-4.33L11 8.5z" fill="#fff"/><path d="M4.75 2.005L16 8.5 4.75 14.995V2.005z" stroke="#fff"/></svg><svg fill="none" viewBox="0 0 24 24" id="telegram" xmlns="http://www.w3.org/2000/svg"><path d="M20.665 3.717l-17.73 6.837c-1.21.486-1.203 1.161-.222 1.462l4.552 1.42 10.532-6.645c.498-.303.953-.14.579.192l-8.533 7.701h-.002l.002.001-.314 4.692c.46 0 .663-.21.921-.46l2.211-2.15 4.599 3.397c.848.467 1.457.227 1.668-.785l3.019-14.228c.309-1.239-.473-1.8-1.282-1.434z" fill="#333"/></svg><svg fill="none" viewBox="0 0 24 24" id="vk" xmlns="http://www.w3.org/2000/svg"><g clip-path="url(#oclip0)"><path fill-rule="evenodd" clip-rule="evenodd" d="M21.362 14.758s1.94 1.916 2.42 2.803a.15.15 0 01.022.042c.196.327.244.584.148.774-.162.313-.71.47-.896.483h-3.43c-.239 0-.736-.062-1.34-.48-.462-.322-.922-.854-1.367-1.373-.665-.772-1.24-1.442-1.822-1.442a.656.656 0 00-.216.036c-.44.14-1 .767-1 2.439 0 .523-.412.82-.701.82h-1.571c-.535 0-3.322-.187-5.793-2.792C2.79 12.878.07 6.48.043 6.424c-.169-.414.186-.64.57-.64h3.463c.465 0 .616.28.722.533.122.289.576 1.446 1.32 2.745 1.204 2.115 1.945 2.975 2.536 2.975.112 0 .22-.028.317-.084.773-.425.629-3.185.593-3.753 0-.11-.001-1.233-.397-1.775-.283-.389-.766-.54-1.057-.595.078-.113.243-.286.456-.388.529-.264 1.485-.302 2.434-.302h.527c1.03.014 1.296.08 1.67.175.754.18.769.668.703 2.331-.02.476-.04 1.01-.04 1.64 0 .135-.006.285-.006.438-.023.853-.053 1.814.55 2.209a.492.492 0 00.26.074c.209 0 .834 0 2.53-2.91.744-1.285 1.32-2.8 1.36-2.915.033-.063.134-.242.256-.314a.575.575 0 01.283-.067h4.074c.444 0 .745.067.804.235.099.272-.019 1.104-1.879 3.62-.313.418-.588.78-.83 1.097-1.685 2.213-1.685 2.325.1 4.005z" fill="#333"/></g><defs><clipPath id="oclip0"><path fill="#fff" d="M0 0h24v24H0z"/></clipPath></defs></svg><svg fill="none" viewBox="0 0 26 26" id="youtube" xmlns="http://www.w3.org/2000/svg"><path d="M23.896 7.524a2.843 2.843 0 00-2.007-2.007c-1.771-.48-8.889-.48-8.889-.48s-7.117 0-8.889.48a2.844 2.844 0 00-2.007 2.007A29.356 29.356 0 001.625 13c-.012 1.836.149 3.67.48 5.476a2.844 2.844 0 002.006 2.007c1.772.48 8.889.48 8.889.48s7.117 0 8.889-.48a2.844 2.844 0 002.007-2.007c.33-1.806.49-3.64.479-5.476a29.346 29.346 0 00-.48-5.476zm-13.171 8.889V9.588L16.632 13l-5.907 3.413z" fill="#333"/></svg></svg>