<?xml version="1.0" encoding="utf-8"?>
	<svg viewbox="0 0 26 26" xmlns="http://www.w3.org/2000/svg">
	<style>
	:root>svg{display:none}:root>svg:target{display:block}
	</style><svg>
	<path d="M8 0a4 4 0 110 8 4 4 0 010-8zm0 10c4.42 0 8 1.79 8 4v2H0v-2c0-2.21 3.58-4 8-4z" fill="red"></path></svg><svg>
	<path d="M5.71 1.63c0-.217.021-.347.393-.347h4.976c.867 0 1.347.74 1.694 2.129l.28 1.11h.846c.154-3.151.287-4.522.287-4.522s-2.13.24-3.393.24H4.427L1.017.13v.914l1.15.217c.807.16 1 .331 1.067 1.071 0 0 .073 2.18.073 5.76 0 3.59-.06 5.74-.06 5.74 0 .649-.26.889-1.06 1.049l-1.148.22V16l3.42-.11h5.7c1.29 0 4.26.11 4.26.11.07-.78.5-4.32.57-4.71h-.8l-.856 1.94c-.67 1.52-1.65 1.63-2.74 1.63h-3.27c-1.087 0-1.61-.426-1.61-1.366v-4.96s2.413 0 3.193.063c.608.043.975.217 1.173 1.066l.26 1.13h.94l-.06-2.852.128-2.87h-.927l-.3 1.26c-.189.829-.32.98-1.17 1.066-1.11.114-3.21.094-3.21.094V1.633h-.033l.002-.003z" fill="#090979"></path></svg><svg>
	<path d="M14.513 22.747v-8.88h2.996l.445-3.476h-3.44V8.177c0-1.003.279-1.69 1.719-1.69h1.824v-3.1a24.198 24.198 0 00-2.673-.137c-2.647 0-4.465 1.616-4.465 4.584v2.55H7.943v3.477h2.982v8.886h3.588z" fill="#090979"></path></svg><svg>
	<path d="M8.973 2.596C6.22-1.659.643.66.643 5.295c0 3.48 7.644 8.925 8.33 9.634.692-.709 7.956-6.153 7.956-9.634 0-4.6-5.196-6.954-7.956-2.699z" fill="#090979"></path></svg><svg>
	<path d="M1.574 5.286l7.5 4.029c.252.135.578.199.906.199.328 0 .654-.064.906-.199l7.5-4.029c.489-.263.951-1.286.054-1.286H1.521c-.897 0-.435 1.023.053 1.286zm17.039 2.203l-7.727 4.027c-.34.178-.578.199-.906.199-.328 0-.566-.021-.906-.199-.34-.178-7.133-3.739-7.688-4.028-.39-.204-.386.035-.386.219V15c0 .42.566 1 1 1h16c.434 0 1-.58 1-1V7.708c0-.184.004-.423-.387-.219z" fill="#090979"></path></svg><svg>
	<path d="M17.256 12.253c-.096-.667-.611-1.187-1.274-1.342-2.577-.604-3.223-2.088-3.332-3.734C12.193 7.092 11.38 7 10 7s-2.193.092-2.65.177c-.109 1.646-.755 3.13-3.332 3.734-.663.156-1.178.675-1.274 1.342l-.497 3.442C2.072 16.907 2.962 18 4.2 18h11.6c1.237 0 2.128-1.093 1.953-2.305l-.497-3.442zM10 15.492c-1.395 0-2.526-1.12-2.526-2.5s1.131-2.5 2.526-2.5c1.395 0 2.526 1.12 2.526 2.5s-1.132 2.5-2.526 2.5zM19.95 6c-.024-1.5-3.842-3.999-9.95-4C3.891 2.001.073 4.5.05 6 .027 7.5.071 9.452 2.585 9.127c2.941-.381 2.76-1.408 2.76-2.876C5.345 5.227 7.737 4.98 10 4.98c2.263 0 4.654.247 4.655 1.271 0 1.468-.181 2.495 2.76 2.876C19.928 9.452 19.973 7.5 19.95 6z" fill="#090979"></path></svg><svg>
	<path d="M19 17l-5.154-5.154a7 7 0 10-2 2L17 19l2-2zM3 8c0-2.757 2.243-5 5-5s5 2.243 5 5-2.243 5-5 5-5-2.243-5-5z" fill="#090979"></path></svg><svg>
	<path d="M11 8.5l-3.75 2.165v-4.33L11 8.5z" fill="#090979"></path>
	<path d="M4.75 2.005L16 8.5 4.75 14.995V2.005z" stroke="none"></path></svg><svg>
	<path d="M20.665 3.717l-17.73 6.837c-1.21.486-1.203 1.161-.222 1.462l4.552 1.42 10.532-6.645c.498-.303.953-.14.579.192l-8.533 7.701h-.002l.002.001-.314 4.692c.46 0 .663-.21.921-.46l2.211-2.15 4.599 3.397c.848.467 1.457.227 1.668-.785l3.019-14.228c.309-1.239-.473-1.8-1.282-1.434z" fill="#090979"></path></svg><svg>
	<g clip-path="url(#jclip0)">
		<path clip-rule="evenodd" d="M21.362 14.758s1.94 1.916 2.42 2.803a.15.15 0 01.022.042c.196.327.244.584.148.774-.162.313-.71.47-.896.483h-3.43c-.239 0-.736-.062-1.34-.48-.462-.322-.922-.854-1.367-1.373-.665-.772-1.24-1.442-1.822-1.442a.656.656 0 00-.216.036c-.44.14-1 .767-1 2.439 0 .523-.412.82-.701.82h-1.571c-.535 0-3.322-.187-5.793-2.792C2.79 12.878.07 6.48.043 6.424c-.169-.414.186-.64.57-.64h3.463c.465 0 .616.28.722.533.122.289.576 1.446 1.32 2.745 1.204 2.115 1.945 2.975 2.536 2.975.112 0 .22-.028.317-.084.773-.425.629-3.185.593-3.753 0-.11-.001-1.233-.397-1.775-.283-.389-.766-.54-1.057-.595.078-.113.243-.286.456-.388.529-.264 1.485-.302 2.434-.302h.527c1.03.014 1.296.08 1.67.175.754.18.769.668.703 2.331-.02.476-.04 1.01-.04 1.64 0 .135-.006.285-.006.438-.023.853-.053 1.814.55 2.209a.492.492 0 00.26.074c.209 0 .834 0 2.53-2.91.744-1.285 1.32-2.8 1.36-2.915.033-.063.134-.242.256-.314a.575.575 0 01.283-.067h4.074c.444 0 .745.067.804.235.099.272-.019 1.104-1.879 3.62-.313.418-.588.78-.83 1.097-1.685 2.213-1.685 2.325.1 4.005z" fill="#090979" fill-rule="evenodd"></path>
	</g>
	<defs>
		<clippath id="jclip0">
			<path d="M0 0h24v24H0z" fill="#090979"></path>
		</clippath>
	</defs></svg><svg>
	<path d="M23.896 7.524a2.843 2.843 0 00-2.007-2.007c-1.771-.48-8.889-.48-8.889-.48s-7.117 0-8.889.48a2.844 2.844 0 00-2.007 2.007A29.356 29.356 0 001.625 13c-.012 1.836.149 3.67.48 5.476a2.844 2.844 0 002.006 2.007c1.772.48 8.889.48 8.889.48s7.117 0 8.889-.48a2.844 2.844 0 002.007-2.007c.33-1.806.49-3.64.479-5.476a29.346 29.346 0 00-.48-5.476zm-13.171 8.889V9.588L16.632 13l-5.907 3.413z" fill="#090979"></path></svg></svg>
